<svg xmlns="http://www.w3.org/2000/svg" version="1.1" xmlns:xlink="http://www.w3.org/1999/xlink" xmlns:svgjs="http://svgjs.dev/svgjs" width="190" height="190"><svg id="SvgjsSvg1005" xmlns="http://www.w3.org/2000/svg" viewBox="0 0 190 190"><defs><style>.b{fill:#fff;}</style></defs><rect width="190" height="190"></rect><path class="b" d="M162.44,168.12c1.46,0,2.77-.04,4.08,0,1.72,.06,2.68,.89,2.7,2.26,.02,1.41-1.03,2.35-2.79,2.35-8.98,.02-17.96,0-26.95,0-39.12,0-78.25,0-117.37,0-.71,0-1.44,.03-2.14-.1-1.25-.24-1.92-1.05-1.88-2.34,.04-1.21,.75-1.97,1.94-2.08,1.2-.12,2.42-.13,3.63-.09,1.02,.04,1.34-.36,1.32-1.35-.04-3.42-.02-6.83-.02-10.25,0-12.4,.02-24.79-.04-37.19,0-.93-.41-2.03-.99-2.77-3.13-3.95-2.78-9.48,.95-13.02,3.41-3.24,9.27-3.35,12.67-.23,3.88,3.56,4.48,9.19,1.26,13.08-.81,.98-1.12,1.93-1.06,3.14,.06,1.26,.17,2.56-.02,3.8-.34,2.28,.75,3.62,2.44,4.95,13.55,10.61,33.16,10.16,45.69-1.08,.84-.76,1.34-1.51,1.23-2.69-.09-.98-.05-1.98-.01-2.97,.08-2.15-.12-4.04-1.55-5.98-2.48-3.37-2.06-7.73,.45-10.9,2.55-3.22,6.71-4.42,10.7-3.08,3.62,1.21,6.25,4.82,6.32,8.84,.04,2.27-.82,4.27-2.1,6.15-.51,.75-.84,1.74-.93,2.65-.15,1.42,.1,2.88-.07,4.29-.25,2.01,.66,3.23,2.15,4.43,13.73,11.07,33.43,10.65,46.37-1.12,.59-.54,.88-1.54,1.05-2.38,.18-.9,.02-1.87,.05-2.8,.05-2.19-.15-4.1-1.62-6.11-2.93-4.03-1.71-9.48,2.32-12.65,3.46-2.73,9.12-2.35,12.28,.83,3.62,3.65,3.92,8.96,.78,12.9-.47,.59-.92,1.42-.93,2.14-.05,16.03-.04,32.07-.04,48.1,0,.32,.05,.64,.09,1.27Zm-62.39,0h1.8c15.27,0,30.53-.02,45.79,.03,1.55,0,1.93-.46,1.92-1.95-.06-10.69-.03-21.38-.03-32.07,0-.53-.05-1.06-.09-1.97-7.47,5.55-15.58,8.43-24.62,8.4-9.08-.03-17.27-2.8-24.78-8.36v35.92Zm-62.28-35.64c0,.86,0,1.4,0,1.95,0,10.57,.03,21.15-.03,31.72-.01,1.6,.46,2.02,2.04,2.01,15.15-.06,30.3-.03,45.45-.04,.54,0,1.08,0,1.73,0v-35.6c-16.36,10.71-32.61,10.91-49.18-.04Zm-4.71,35.46v-47.74h-3.5v2.24c0,14.27,0,28.54,0,42.81,0,3.24,.02,3.25,3.5,2.69Zm121.05-47.81c0,.83,0,1.49,0,2.14,0,8.38,0,16.75,0,25.13,0,6.34-.01,12.67,.02,19.01,0,.55,.1,1.37,.45,1.59,1.47,.93,3.16-.09,3.16-1.79,0-14.77,0-29.54,0-44.3,0-.58-.06-1.16-.09-1.77h-3.54Zm-58.91,47.91v-47.87h-3.36v47.87h3.36Zm-58.93-57.48c0-2.74-2.16-4.95-4.87-4.96-2.64-.02-4.98,2.27-4.98,4.9,0,2.65,2.27,4.94,4.91,4.96,2.7,.01,4.94-2.2,4.94-4.89Zm119.67-4.97c-2.74,0-4.92,2.21-4.9,4.96,.02,2.75,2.23,4.93,4.96,4.9,2.58-.04,4.87-2.32,4.89-4.87,.01-2.65-2.3-4.98-4.95-4.99Zm-62.46,9.85c2.7,0,4.97-2.28,4.93-4.94-.05-2.75-2.27-4.95-4.97-4.91-2.63,.04-4.82,2.24-4.85,4.87-.03,2.7,2.21,4.98,4.89,4.98Z"></path><path class="b" d="M93.5,90.86c-16.26,0-32.52,0-48.78,0-3.06,0-3.69-.64-3.7-3.68,0-21.27,0-42.54,0-63.81,0-2.96,.61-3.57,3.6-3.57,32.68,0,65.37,0,98.05,0,2.99,0,3.62,.62,3.62,3.57,0,21.33,0,42.65,0,63.98,0,2.81-.71,3.52-3.53,3.52-16.42,0-32.85,0-49.27,0Zm36.27-14.77V34.59H57.56v41.5h72.21Zm7.63,10.09c-2.14-1.91-3.95-3.58-5.82-5.16-.32-.27-.93-.25-1.41-.25-24.34-.01-48.69-.01-73.03,0-.48,0-1.09,0-1.41,.27-1.87,1.58-3.67,3.24-5.8,5.14h87.47ZM49.93,24.52c1.88,1.69,3.34,3.11,4.93,4.37,.63,.5,1.53,.91,2.31,.91,24.34,.05,48.69,.04,73.03,.03,.48,0,1.12,.06,1.43-.2,1.86-1.56,3.65-3.21,5.77-5.11H49.93Zm91.12,3.2c-1.86,1.69-3.5,3.08-5,4.62-.51,.52-.91,1.39-.91,2.11-.05,13.94-.04,27.88-.03,41.82,0,.48-.04,1.14,.23,1.41,1.79,1.73,3.66,3.37,5.71,5.22V27.72Zm-94.72,.04v55.08c1.96-1.75,3.74-3.28,5.44-4.91,.33-.32,.46-.98,.46-1.49,.02-14.05,.02-28.09,0-42.14,0-.51-.1-1.19-.42-1.5-1.71-1.67-3.52-3.26-5.48-5.04Z"></path></svg><style>@media (prefers-color-scheme: light) { :root { filter: none; } }
@media (prefers-color-scheme: dark) { :root { filter: none; } }
</style></svg>