<?xml version="1.0" encoding="UTF-8"?>
<svg id="a" xmlns="http://www.w3.org/2000/svg" viewBox="0 0 500 190">
<defs>
<path id="c" d="M152.61,160.63c1.46,0,2.77-.04,4.08,0,1.72,.06,2.68,.89,2.7,2.26,.02,1.41-1.03,2.35-2.79,2.35-8.98,.02-17.96,0-26.95,0-39.12,0-78.25,0-117.37,0-.71,0-1.44,.03-2.14-.1-1.25-.24-1.92-1.05-1.88-2.34,.04-1.21,.75-1.97,1.94-2.08,1.2-.12,2.42-.13,3.63-.09,1.02,.04,1.34-.36,1.32-1.35-.04-3.42-.02-6.83-.02-10.25,0-12.4,.02-24.79-.04-37.19,0-.93-.41-2.03-.99-2.77-3.13-3.95-2.78-9.48,.95-13.02,3.41-3.24,9.27-3.35,12.67-.23,3.88,3.56,4.48,9.19,1.26,13.08-.81,.98-1.12,1.93-1.06,3.14,.06,1.26,.17,2.56-.02,3.8-.34,2.28,.75,3.62,2.44,4.95,13.55,10.61,33.16,10.16,45.69-1.08,.84-.76,1.34-1.51,1.23-2.69-.09-.98-.05-1.98-.01-2.97,.08-2.15-.12-4.04-1.55-5.98-2.48-3.37-2.06-7.73,.45-10.9,2.55-3.22,6.71-4.42,10.7-3.08,3.62,1.21,6.25,4.82,6.32,8.84,.04,2.27-.82,4.27-2.1,6.15-.51,.75-.84,1.74-.93,2.65-.15,1.42,.1,2.88-.07,4.29-.25,2.01,.66,3.23,2.15,4.43,13.73,11.07,33.43,10.65,46.37-1.12,.59-.54,.88-1.54,1.05-2.38,.18-.9,.02-1.87,.05-2.8,.05-2.19-.15-4.1-1.62-6.11-2.93-4.03-1.71-9.48,2.32-12.65,3.46-2.73,9.12-2.35,12.28,.83,3.62,3.65,3.92,8.96,.78,12.9-.47,.59-.92,1.42-.93,2.14-.05,16.03-.04,32.07-.04,48.1,0,.32,.05,.64,.09,1.27Zm-62.39,0h1.8c15.27,0,30.53-.02,45.79,.03,1.55,0,1.93-.46,1.92-1.95-.06-10.69-.03-21.38-.03-32.07,0-.53-.05-1.06-.09-1.97-7.47,5.55-15.58,8.43-24.62,8.4-9.08-.03-17.27-2.8-24.78-8.36v35.92ZM27.94,124.98c0,.86,0,1.4,0,1.95,0,10.57,.03,21.15-.03,31.72-.01,1.6,.46,2.02,2.04,2.01,15.15-.06,30.3-.03,45.45-.04,.54,0,1.08,0,1.73,0v-35.6c-16.36,10.71-32.61,10.91-49.18-.04Zm-4.71,35.46v-47.74h-3.5v2.24c0,14.27,0,28.54,0,42.81,0,3.24,.02,3.25,3.5,2.69Zm121.05-47.81c0,.83,0,1.49,0,2.14,0,8.38,0,16.75,0,25.13,0,6.34-.01,12.67,.02,19.01,0,.55,.1,1.37,.45,1.59,1.47,.93,3.16-.09,3.16-1.79,0-14.77,0-29.54,0-44.3,0-.58-.06-1.16-.09-1.77h-3.54Zm-58.91,47.91v-47.87h-3.36v47.87h3.36ZM26.44,103.06c0-2.74-2.16-4.95-4.87-4.96-2.64-.02-4.98,2.27-4.98,4.9,0,2.65,2.27,4.94,4.91,4.96,2.7,.01,4.94-2.2,4.94-4.89Zm119.67-4.97c-2.74,0-4.92,2.21-4.9,4.96,.02,2.75,2.23,4.93,4.96,4.9,2.58-.04,4.87-2.32,4.89-4.87,.01-2.65-2.3-4.98-4.95-4.99Zm-62.46,9.85c2.7,0,4.97-2.28,4.93-4.94-.05-2.75-2.27-4.95-4.97-4.91-2.63,.04-4.82,2.24-4.85,4.87-.03,2.7,2.21,4.98,4.89,4.98Zm.01-24.58c-16.26,0-32.52,0-48.78,0-3.06,0-3.69-.64-3.7-3.68,0-21.27,0-42.54,0-63.81,0-2.96,.61-3.57,3.6-3.57,32.68,0,65.37,0,98.05,0,2.99,0,3.62,.62,3.62,3.57,0,21.33,0,42.65,0,63.98,0,2.81-.71,3.52-3.53,3.52-16.42,0-32.85,0-49.27,0Zm36.27-14.77V27.1H47.72v41.5H119.93Zm7.63,10.09c-2.14-1.91-3.95-3.58-5.82-5.16-.32-.27-.93-.25-1.41-.25-24.34-.01-48.69-.01-73.03,0-.48,0-1.09,0-1.41,.27-1.87,1.58-3.67,3.24-5.8,5.14H127.56ZM40.09,17.03c1.88,1.69,3.34,3.11,4.93,4.37,.63,.5,1.53,.91,2.31,.91,24.34,.05,48.69,.04,73.03,.03,.48,0,1.12,.06,1.43-.2,1.86-1.56,3.65-3.21,5.77-5.11H40.09Zm91.12,3.2c-1.86,1.69-3.5,3.08-5,4.62-.51,.52-.91,1.39-.91,2.11-.05,13.94-.04,27.88-.03,41.82,0,.48-.04,1.14,.23,1.41,1.79,1.73,3.66,3.37,5.71,5.22V20.22Zm-94.72,.04v55.08c1.96-1.75,3.74-3.28,5.44-4.91,.33-.32,.46-.98,.46-1.49,.02-14.05,.02-28.09,0-42.14,0-.51-.1-1.19-.42-1.5-1.71-1.67-3.52-3.26-5.48-5.04Zm248.24,134.25h-13.85v-32.52h26.67v10.45h-12.83v3.17h9.76v10.45h-9.76v8.44Zm-11.86-1.79h9.87v-8.44h9.76v-6.88h-9.76v-6.74h12.83v-6.88h-22.69v28.94Zm47.17,1.79h-13.85v-32.52h13.85v32.52Zm-11.86-1.79h9.87v-28.94h-9.87v28.94Zm55.7,1.79h-13.28l-6.95-11.21v11.21h-13.85v-32.52h13.21l7.03,10.41v-10.41h13.85v32.52Zm-12.11-1.79h10.12v-28.94h-9.87v11.65h-2.27l-7.87-11.65h-10.1v28.94h9.87v-12.52h2.35l7.77,12.52Zm37.84,1.79h-15.97v-32.52h15.46c6.14,0,10.66,1.29,13.44,3.85,2.76,2.55,4.17,6.61,4.17,12.07s-1.34,9.6-3.97,12.37c-2.67,2.81-7.09,4.23-13.12,4.23Zm-13.98-1.79h13.98c5.43,0,9.33-1.21,11.61-3.61,2.32-2.44,3.49-6.21,3.49-11.21s-1.21-8.62-3.6-10.82c-2.38-2.19-6.42-3.31-12.01-3.31h-13.47v28.94Zm12.96-6.88h-3.09v-15.18h3.09c2.54,0,4.24,.61,5.06,1.8,.74,1.07,1.09,3.02,1.09,5.97s-.47,4.94-1.49,5.93c-1.05,.99-2.62,1.48-4.67,1.48Zm-1.1-1.79h1.1c1.48,0,2.57-.31,3.22-.92,.35-.34,.95-1.41,.95-4.7s-.43-4.51-.8-5.04c-.54-.79-2.13-.95-3.37-.95h-1.1v11.61Zm55.91,10.45h-27.64v-32.52h27.64v10.27h-13.8v.83h10.73v10.18h-10.73v.97h13.8v10.27Zm-25.65-1.79h23.66v-6.7h-13.8v-4.54h10.73v-6.61h-10.73v-4.4h13.8v-6.7h-23.66v28.94Zm65.84,1.79h-14.19l-1.94-7.93h-1.12v7.93h-13.85v-32.52h15.41c5.56,0,9.47,.83,11.95,2.55,2.53,1.75,3.81,4.93,3.81,9.47,0,4.24-1.23,7.42-3.65,9.45l3.57,11.05Zm-12.58-1.79h9.94l-3.19-9.88,.51-.37c2.27-1.65,3.41-4.49,3.41-8.46s-1.02-6.66-3.04-8.05c-2.09-1.44-5.71-2.18-10.74-2.18h-13.42v28.94h9.87v-7.93h4.71l1.94,7.93Zm-2.79-14.54h-3.91v-7.79h3.6c2.42,0,3.81,1.42,3.81,3.9,0,3.39-2.19,3.9-3.5,3.9Zm-1.92-1.79h1.92c.53,0,1.51,0,1.51-2.11,0-1.95-.94-2.11-1.82-2.11h-1.61v4.22Zm-203.79-20.27v-4.22c12.37-1.21,12.82-2.11,12.67-18.25l.15-61.54c-12.37,27.6-32.28,70.74-37.56,84.01h-3.92c-5.13-13.73-22.17-55.21-33.64-82.51-2.56,52.79-2.71,64.71-2.71,67.57,.15,8.45,3.92,9.65,14.18,10.71v4.22h-35.75v-4.22c8.75-.91,12.37-2.72,13.58-10.86,.91-6.64,1.06-12.07,4.98-67.12,.6-7.84-.91-10.41-14.18-11.61v-4.22h26.25l33.33,76.47,35.75-76.47h26.4v4.22c-12.97,1.51-14.63,2.87-14.33,13.42l.6,57.92c.6,16.14,1.06,16.89,14.33,18.25v4.22h-40.12Zm131.98-23.98c-.91,3.92-4.98,19.46-6.49,23.98h-73.3v-4.22c14.03-1.06,15.08-2.41,15.08-14.78V37.55c0-13.42-1.66-14.18-12.97-15.23v-4.22h46.16c14.18,0,20.06-.15,21.87-.3,.15,3.77,.75,15.08,1.36,23.08l-4.53,.75c-1.36-5.13-2.87-8.3-4.53-11.46-2.41-4.98-5.88-6.03-14.93-6.03h-14.33c-4.68,0-4.98,.45-4.98,4.83V62.28h16.74c11.31,0,12.07-2.26,13.88-12.52h4.68v31.07h-4.68c-1.96-10.86-3.17-12.37-14.03-12.37h-16.59v30.02c0,10.56,3.32,11.46,10.86,11.61h14.03c9.2,0,10.71-1.36,14.03-5.28,2.87-3.17,6.03-9.35,8.14-13.88l4.53,1.21Zm90.04-50.38c-1.36-4.83-3.17-9.8-4.83-12.52-2.41-4.07-3.92-5.13-12.22-5.13h-15.08V97.58c0,11.76,1.21,13.42,15.54,14.33v4.22h-43.89v-4.22c14.03-.91,15.23-2.41,15.23-14.33V24.12h-13.73c-8.3,0-10.71,.91-13.27,5.43-1.81,3.02-3.02,6.64-4.98,12.22h-4.52c.9-9.2,1.81-18.7,2.26-27.15h3.47c2.26,3.62,3.92,3.47,8.14,3.47h59.73c4.22,0,5.43-.6,7.69-3.47h3.62c0,7.09,.6,17.95,1.36,26.7l-4.53,.45ZM189.56,153.35v-1.31c3.04-.38,3.42-.84,2.76-2.62-.61-1.83-1.54-4.17-2.53-7.12h-10.11c-.75,2.11-1.45,3.93-2.11,5.85-1.03,3.04-.37,3.42,3.46,3.89v1.31h-10.81v-1.31c2.95-.38,3.7-.7,5.34-4.92l9.69-24.58,1.5-.28c2.95,8.01,6.18,16.85,9.13,24.95,1.5,4.07,1.92,4.45,5.24,4.82v1.31h-11.56Zm-4.68-24.95c-1.5,4.03-3.09,8.29-4.49,11.98h8.75l-4.26-11.98Zm45.88,25.33c-.61,0-1.12-.05-1.73-.09-3.42-.23-5.24-1.12-7.3-4.03-1.73-2.39-3.42-5.34-4.92-7.72-.94-1.5-1.54-1.78-3.93-1.78h-1.64v7.35c0,3.98,.51,4.21,4.26,4.59v1.31h-12.5v-1.31c3.89-.42,4.21-.61,4.21-4.59v-18.68c0-3.98-.52-4.12-4.21-4.54v-1.31h11.94c3.42,0,5.71,.42,7.49,1.59,1.92,1.22,3.18,3.32,3.18,6.18,0,4.03-2.58,6.55-6.04,8.05,.84,1.45,2.86,4.59,4.26,6.69,1.73,2.48,2.62,3.65,3.7,4.82,1.26,1.36,2.34,1.87,3.42,2.15l-.19,1.31Zm-17.27-15.21c2.43,0,3.98-.37,5.15-1.36,1.83-1.36,2.58-3.23,2.58-5.76,0-5.01-3.32-6.83-6.93-6.83-1.36,0-2.15,.19-2.48,.47-.42,.33-.56,.8-.56,2.01v11.47h2.25Zm42.41-8.24c-.42-1.5-.98-3.04-1.5-3.89-.75-1.26-1.22-1.59-3.79-1.59h-4.68v22.8c0,3.65,.37,4.17,4.82,4.45v1.31h-13.62v-1.31c4.35-.28,4.73-.75,4.73-4.45v-22.8h-4.26c-2.58,0-3.32,.28-4.12,1.69-.56,.94-.94,2.06-1.54,3.79h-1.4c.28-2.86,.56-5.81,.7-8.43h1.08c.7,1.12,1.22,1.08,2.53,1.08h18.54c1.31,0,1.68-.19,2.39-1.08h1.12c0,2.2,.19,5.57,.42,8.29l-1.4,.14Zm180.11,42.23v-1.76h-5.96v-3.56l1.98-9.18h5.77l-2.84,8.6h1.08l.44-2.49,4.53-.15v2.64h.55v4.14h-.55v1.76h-5Zm8.01-7.25c0-2.66,.43-4.58,1.3-5.77,.87-1.18,2.36-1.77,4.49-1.77s3.61,.58,4.44,1.75c.84,1.17,1.25,3.09,1.25,5.77s-.42,4.61-1.27,5.79c-.84,1.18-2.34,1.77-4.48,1.77s-3.63-.59-4.48-1.77c-.84-1.18-1.27-3.1-1.27-5.77Zm6.12-3.29c-.09-.07-.21-.11-.37-.11s-.29,.04-.37,.11c-.09,.07-.16,.24-.22,.48-.1,.44-.15,1.38-.15,2.81s.05,2.36,.14,2.77c.1,.42,.3,.63,.61,.63s.51-.21,.61-.63c.1-.42,.14-1.18,.14-2.28s-.01-1.86-.03-2.29c-.02-.42-.06-.76-.12-1.01-.06-.25-.13-.41-.22-.48Zm7.97,3.29c0-2.66,.43-4.58,1.3-5.77,.87-1.18,2.36-1.77,4.49-1.77s3.61,.58,4.44,1.75c.84,1.17,1.25,3.09,1.25,5.77s-.42,4.61-1.27,5.79c-.84,1.18-2.34,1.77-4.48,1.77s-3.63-.59-4.48-1.77c-.84-1.18-1.27-3.1-1.27-5.77Zm6.12-3.29c-.09-.07-.21-.11-.37-.11s-.29,.04-.37,.11c-.09,.07-.16,.24-.22,.48-.1,.44-.15,1.38-.15,2.81s.05,2.36,.14,2.77c.1,.42,.3,.63,.61,.63s.51-.21,.61-.63c.1-.42,.14-1.18,.14-2.28s-.01-1.86-.03-2.29c-.02-.42-.06-.76-.12-1.01-.06-.25-.13-.41-.22-.48Zm7.97,3.29c0-2.66,.43-4.58,1.3-5.77,.87-1.18,2.36-1.77,4.49-1.77s3.61,.58,4.44,1.75c.84,1.17,1.25,3.09,1.25,5.77s-.42,4.61-1.27,5.79c-.84,1.18-2.34,1.77-4.48,1.77s-3.63-.59-4.48-1.77c-.84-1.18-1.27-3.1-1.27-5.77Zm6.12-3.29c-.09-.07-.21-.11-.37-.11s-.29,.04-.37,.11c-.09,.07-.16,.24-.22,.48-.1,.44-.15,1.38-.15,2.81s.05,2.36,.14,2.77c.1,.42,.3,.63,.61,.63s.51-.21,.61-.63c.1-.42,.14-1.18,.14-2.28s-.01-1.86-.03-2.29c-.02-.42-.06-.76-.12-1.01-.06-.25-.13-.41-.22-.48Z"/>
<clipPath id="logo-clipPath">
  <use href="#c" />
</clipPath>
</defs>
  <g clip-path="url(#logo-clipPath)">
    <g>
      <rect id="b" x="0" y="0" width="500" height="190" fill="#D3318A" transform="skewX(-10)"/>
      <animateTransform 
      attributeName="transform"
      type="translate"
      from="-500 0"
      to="500 0"
      dur="3s"
      repeatCount = "indefinite"
      />
    </g>
  </g>
</svg>